<svg width="200" height="50" viewBox="0 0 200 50" fill="none" xmlns="http://www.w3.org/2000/svg">
  <!-- Hedera H logo -->
  <g transform="translate(5, 5)">
    <rect width="40" height="40" fill="#ffffff"/>
    <path d="M10 8h4v10h8V8h4v24h-4V22h-8v10h-4V8z" fill="#222222"/>
    <path d="M10 18h16v4H10z" fill="#222222"/>
    <path d="M5 28c0 0 8 4 16 4s16-4 16-4" stroke="#222222" stroke-width="2" fill="none"/>
    <path d="M5 24c0 0 8 4 16 4s16-4 16-4" stroke="#222222" stroke-width="2" fill="none"/>
    <path d="M5 20c0 0 8 4 16 4s16-4 16-4" stroke="#222222" stroke-width="2" fill="none"/>
  </g>
  
  <!-- Text -->
  <text x="55" y="32" font-family="system-ui, -apple-system, sans-serif" font-size="20" font-weight="600" fill="#ffffff">Hedera Flow</text>
</svg>
